<svg width="418" height="95" viewBox="0 0 418 95" fill="none" xmlns="http://www.w3.org/2000/svg">
<path d="M103.967 91.464C104.137 91.464 104.223 91.72 104.223 92.232C104.223 92.744 104.137 93 103.967 93C101.065 93 98.7612 92.9573 97.0545 92.872L87.5825 92.744L77.9825 92.872C76.3612 92.9573 74.1425 93 71.3265 93C71.0705 93 70.9425 92.744 70.9425 92.232C70.9425 91.72 71.0705 91.464 71.3265 91.464C74.9105 91.464 77.3425 91.0373 78.6225 90.184C79.9025 89.3307 80.5425 87.5387 80.5425 84.808L80.4145 82.632L77.7265 30.28L51.3585 92.104C51.1878 92.4453 50.8465 92.616 50.3345 92.616C49.8225 92.616 49.4812 92.4453 49.3105 92.104L16.9265 30.536L15.9025 76.744C15.8172 81.352 16.7132 84.9787 18.5905 87.624C20.5532 90.184 23.2838 91.464 26.7825 91.464C27.0385 91.464 27.1665 91.72 27.1665 92.232C27.1665 92.744 27.0385 93 26.7825 93C24.4785 93 22.6865 92.9573 21.4065 92.872L14.3665 92.744L6.3025 92.872C4.93717 92.9573 3.1025 93 0.798499 93C0.542499 93 0.414499 92.744 0.414499 92.232C0.414499 91.72 0.542499 91.464 0.798499 91.464C4.29717 91.464 7.0705 90.1413 9.1185 87.496C11.1665 84.8507 12.2332 81.2667 12.3185 76.744L13.4705 23.752L13.3425 23.624C11.6358 20.4667 9.84383 18.1627 7.9665 16.712C6.1745 15.2613 4.08383 14.536 1.6945 14.536C1.4385 14.536 1.3105 14.28 1.3105 13.768C1.3105 13.256 1.4385 13 1.6945 13L7.7105 13.128C8.90517 13.2133 10.4412 13.256 12.3185 13.256L19.1025 13.128C19.8705 13.0427 20.8518 13 22.0465 13C23.1558 13 24.0092 13.384 24.6065 14.152C25.2038 14.92 26.3132 16.7547 27.9345 19.656L55.8385 72.008L80.1585 16.2C80.6705 15.0053 81.1825 14.1947 81.6945 13.768C82.2918 13.256 83.0598 13 83.9985 13C84.7665 13 85.6198 13.0427 86.5585 13.128C87.5825 13.2133 88.7345 13.256 90.0145 13.256L97.5665 13.128C98.7612 13.0427 100.468 13 102.687 13C102.943 13 103.071 13.256 103.071 13.768C103.071 14.28 102.943 14.536 102.687 14.536C98.6758 14.536 95.7745 15.3467 93.9825 16.968C92.1905 18.5893 91.3798 21.1067 91.5505 24.52L94.6225 82.632C94.7932 85.2773 95.0918 87.1973 95.5185 88.392C96.0305 89.5867 96.8838 90.3973 98.0785 90.824C99.3585 91.2507 101.321 91.464 103.967 91.464ZM156.885 86.088C157.226 86.088 157.439 86.3013 157.525 86.728C157.695 87.0693 157.61 87.3253 157.269 87.496L144.085 93.768C143.743 93.9387 143.317 94.024 142.805 94.024C141.439 94.024 140.117 93.2987 138.837 91.848C137.642 90.3973 136.789 88.4347 136.277 85.96L130.773 89.8C128.81 91.2507 126.975 92.3173 125.269 93C123.562 93.5973 121.642 93.896 119.509 93.896C115.839 93.896 113.066 93.0853 111.189 91.464C109.311 89.8427 108.373 87.5813 108.373 84.68C108.373 82.376 108.927 80.5413 110.037 79.176C111.146 77.7253 112.511 76.616 114.133 75.848C115.839 74.9947 118.186 74.056 121.173 73.032L124.373 71.88L135.893 67.656V60.36C135.893 54.8987 135.423 50.9307 134.485 48.456C133.631 45.9813 132.138 44.744 130.005 44.744C125.482 44.744 122.922 48.2427 122.325 55.24C122.069 57.8 121.301 59.6347 120.021 60.744C118.826 61.8533 117.119 62.408 114.901 62.408C112.767 62.408 111.189 61.9813 110.165 61.128C109.226 60.1893 108.757 58.9947 108.757 57.544C108.757 54.984 110.25 52.552 113.237 50.248C116.223 47.8587 119.807 45.9387 123.989 44.488C128.255 43.0373 132.01 42.312 135.253 42.312C139.007 42.312 142.037 43.5067 144.341 45.896C146.73 48.2 147.925 51.7413 147.925 56.52V79.176C147.925 81.6507 148.351 83.5707 149.205 84.936C150.143 86.3013 151.423 86.984 153.045 86.984C154.239 86.984 155.477 86.6853 156.757 86.088H156.885ZM136.021 83.784C135.935 83.4427 135.893 82.888 135.893 82.12V69.832L130.389 72.392C130.133 72.4773 129.279 72.8187 127.829 73.416C126.378 73.928 125.098 74.824 123.989 76.104C122.965 77.384 122.453 78.8773 122.453 80.584C122.453 82.632 123.093 84.2533 124.373 85.448C125.738 86.5573 127.274 87.112 128.981 87.112C130.346 87.112 131.754 86.6427 133.205 85.704L136.021 83.784ZM170.568 29.64C168.093 29.64 166.173 28.9573 164.808 27.592C163.442 26.2267 162.76 24.3067 162.76 21.832C162.76 19.6133 163.442 17.864 164.808 16.584C166.258 15.2187 168.178 14.536 170.568 14.536C172.957 14.536 174.792 15.176 176.072 16.456C177.352 17.736 177.992 19.528 177.992 21.832C177.992 24.3067 177.352 26.2267 176.072 27.592C174.792 28.9573 172.957 29.64 170.568 29.64ZM158.28 93C158.024 93 157.896 92.744 157.896 92.232C157.896 91.72 158.024 91.464 158.28 91.464C160.925 91.464 162.717 90.8667 163.656 89.672C164.594 88.392 165.064 86.0453 165.064 82.632V59.72C165.064 56.8187 164.765 54.728 164.168 53.448C163.57 52.168 162.589 51.528 161.224 51.528C160.114 51.528 158.536 51.9973 156.488 52.936H156.36C156.018 52.936 155.762 52.7227 155.592 52.296C155.421 51.784 155.464 51.4853 155.72 51.4L175.048 42.44L175.432 42.312C175.858 42.312 176.285 42.5253 176.712 42.952C177.138 43.3787 177.352 43.7627 177.352 44.104V46.92C177.181 50.3333 177.096 54.5147 177.096 59.464V82.632C177.096 86.0453 177.565 88.392 178.504 89.672C179.528 90.8667 181.362 91.464 184.008 91.464C184.264 91.464 184.392 91.72 184.392 92.232C184.392 92.744 184.264 93 184.008 93C181.789 93 180.04 92.9573 178.76 92.872L171.08 92.744L163.528 92.872C162.248 92.9573 160.498 93 158.28 93ZM187.552 93C187.382 93 187.296 92.744 187.296 92.232C187.296 91.72 187.382 91.464 187.552 91.464C190.198 91.464 191.99 90.8667 192.928 89.672C193.952 88.392 194.464 86.0453 194.464 82.632L194.592 17.608C194.592 14.6213 194.294 12.488 193.696 11.208C193.184 9.92799 192.246 9.28799 190.88 9.28799C189.771 9.28799 188.15 9.75733 186.016 10.696H185.888C185.632 10.696 185.376 10.4827 185.12 10.056C184.95 9.544 184.95 9.24533 185.12 9.16L203.936 0.327995L204.448 0.199997C204.875 0.199997 205.344 0.41333 205.856 0.839996C206.368 1.18133 206.624 1.52266 206.624 1.864V82.632C206.624 86.0453 207.094 88.392 208.032 89.672C208.971 90.8667 210.763 91.464 213.408 91.464C213.75 91.464 213.92 91.72 213.92 92.232C213.92 92.744 213.75 93 213.408 93C211.275 93 209.568 92.9573 208.288 92.872L200.48 92.744L192.8 92.872C191.52 92.9573 189.771 93 187.552 93ZM217.962 93C217.792 93 217.706 92.744 217.706 92.232C217.706 91.72 217.792 91.464 217.962 91.464C220.608 91.464 222.4 90.8667 223.338 89.672C224.362 88.392 224.874 86.0453 224.874 82.632L225.002 17.608C225.002 14.6213 224.704 12.488 224.106 11.208C223.594 9.92799 222.656 9.28799 221.29 9.28799C220.181 9.28799 218.56 9.75733 216.426 10.696H216.298C216.042 10.696 215.786 10.4827 215.53 10.056C215.36 9.544 215.36 9.24533 215.53 9.16L234.346 0.327995L234.858 0.199997C235.285 0.199997 235.754 0.41333 236.266 0.839996C236.778 1.18133 237.035 1.52266 237.035 1.864V82.632C237.035 86.0453 237.504 88.392 238.442 89.672C239.381 90.8667 241.173 91.464 243.819 91.464C244.16 91.464 244.33 91.72 244.33 92.232C244.33 92.744 244.16 93 243.819 93C241.685 93 239.978 92.9573 238.698 92.872L230.89 92.744L223.21 92.872C221.93 92.9573 220.181 93 217.962 93ZM296.245 86.088C296.586 86.088 296.799 86.3013 296.885 86.728C297.055 87.0693 296.97 87.3253 296.629 87.496L283.445 93.768C283.103 93.9387 282.677 94.024 282.165 94.024C280.799 94.024 279.477 93.2987 278.197 91.848C277.002 90.3973 276.149 88.4347 275.637 85.96L270.133 89.8C268.17 91.2507 266.335 92.3173 264.629 93C262.922 93.5973 261.002 93.896 258.869 93.896C255.199 93.896 252.426 93.0853 250.549 91.464C248.671 89.8427 247.733 87.5813 247.733 84.68C247.733 82.376 248.287 80.5413 249.397 79.176C250.506 77.7253 251.871 76.616 253.493 75.848C255.199 74.9947 257.546 74.056 260.533 73.032L263.733 71.88L275.253 67.656V60.36C275.253 54.8987 274.783 50.9307 273.845 48.456C272.991 45.9813 271.498 44.744 269.365 44.744C264.842 44.744 262.282 48.2427 261.685 55.24C261.429 57.8 260.661 59.6347 259.381 60.744C258.186 61.8533 256.479 62.408 254.261 62.408C252.127 62.408 250.549 61.9813 249.525 61.128C248.586 60.1893 248.117 58.9947 248.117 57.544C248.117 54.984 249.61 52.552 252.597 50.248C255.583 47.8587 259.167 45.9387 263.349 44.488C267.615 43.0373 271.37 42.312 274.613 42.312C278.367 42.312 281.397 43.5067 283.701 45.896C286.09 48.2 287.285 51.7413 287.285 56.52V79.176C287.285 81.6507 287.711 83.5707 288.565 84.936C289.503 86.3013 290.783 86.984 292.405 86.984C293.599 86.984 294.837 86.6853 296.117 86.088H296.245ZM275.381 83.784C275.295 83.4427 275.253 82.888 275.253 82.12V69.832L269.749 72.392C269.493 72.4773 268.639 72.8187 267.189 73.416C265.738 73.928 264.458 74.824 263.349 76.104C262.325 77.384 261.813 78.8773 261.813 80.584C261.813 82.632 262.453 84.2533 263.733 85.448C265.098 86.5573 266.634 87.112 268.341 87.112C269.706 87.112 271.114 86.6427 272.565 85.704L275.381 83.784ZM330.919 42.312C332.882 42.312 334.759 43.0373 336.551 44.488C338.429 45.8533 339.367 47.5173 339.367 49.48C339.367 51.272 338.813 52.7653 337.703 53.96C336.594 55.0693 335.143 55.624 333.351 55.624C332.071 55.624 331.005 55.368 330.151 54.856C329.383 54.344 328.573 53.576 327.719 52.552C326.951 51.6987 326.269 51.1013 325.671 50.76C325.159 50.3333 324.519 50.12 323.751 50.12C322.898 50.12 321.959 50.4613 320.935 51.144C319.997 51.7413 318.503 53.064 316.455 55.112V82.632C316.455 86.0453 317.266 88.392 318.887 89.672C320.509 90.8667 323.495 91.464 327.847 91.464C328.189 91.464 328.359 91.72 328.359 92.232C328.359 92.744 328.189 93 327.847 93C324.861 93 322.514 92.9573 320.807 92.872L310.439 92.744L302.887 92.872C301.607 92.9573 299.858 93 297.639 93C297.383 93 297.255 92.744 297.255 92.232C297.255 91.72 297.383 91.464 297.639 91.464C300.285 91.464 302.077 90.8667 303.015 89.672C303.954 88.392 304.423 86.0453 304.423 82.632V58.568C304.423 55.9227 304.082 54.0027 303.399 52.808C302.802 51.528 301.821 50.888 300.455 50.888C299.005 50.888 296.957 51.4853 294.311 52.68H294.055C293.799 52.68 293.586 52.4667 293.415 52.04C293.33 51.6133 293.373 51.3573 293.543 51.272L311.335 42.568C311.847 42.3973 312.146 42.312 312.231 42.312C313.17 42.312 314.023 43.208 314.791 45C315.645 46.7067 316.157 49.0533 316.327 52.04C319.826 48.456 322.685 45.9387 324.903 44.488C327.207 43.0373 329.213 42.312 330.919 42.312ZM399.132 84.68C399.388 84.68 399.601 84.8933 399.771 85.32C400.028 85.7467 400.07 86.0027 399.899 86.088L382.236 94.664L381.596 94.792C380.828 94.792 380.102 93.9813 379.419 92.36C378.822 90.7387 378.438 88.52 378.267 85.704C371.953 91.6773 365.51 94.664 358.939 94.664C355.185 94.664 351.771 93.6827 348.699 91.72C345.713 89.7573 343.323 86.8987 341.531 83.144C339.739 79.304 338.843 74.824 338.843 69.704C338.843 63.2187 340.337 57.928 343.323 53.832C346.395 49.6507 350.15 46.6213 354.587 44.744C359.11 42.8667 363.633 41.928 368.155 41.928C371.313 41.928 374.641 42.44 378.139 43.464V17.608C378.139 14.6213 377.841 12.488 377.243 11.208C376.731 9.92799 375.793 9.28799 374.427 9.28799C373.318 9.28799 371.739 9.75733 369.691 10.696H369.563C369.222 10.696 368.923 10.4827 368.667 10.056C368.497 9.544 368.497 9.24533 368.667 9.16L387.484 0.327995L387.995 0.199997C388.422 0.199997 388.892 0.41333 389.403 0.839996C389.916 1.18133 390.172 1.52266 390.172 1.864V78.152C390.172 81.0533 390.428 83.1013 390.939 84.296C391.537 85.4907 392.475 86.088 393.756 86.088C394.865 86.088 396.614 85.6187 399.004 84.68H399.132ZM365.979 88.52C370.246 88.52 374.299 86.728 378.139 83.144V82.504V51.4C376.603 49.2667 374.854 47.7307 372.891 46.792C371.014 45.768 368.795 45.256 366.235 45.256C361.627 45.256 358.086 46.8773 355.611 50.12C353.222 53.2773 352.027 58.44 352.027 65.608C352.027 72.776 353.307 78.408 355.867 82.504C358.427 86.5147 361.798 88.52 365.979 88.52ZM409.598 94.408C407.208 94.408 405.288 93.7253 403.838 92.36C402.472 90.9093 401.79 88.9893 401.79 86.6C401.79 84.3813 402.472 82.5893 403.838 81.224C405.288 79.8587 407.208 79.176 409.598 79.176C411.987 79.176 413.822 79.8587 415.102 81.224C416.467 82.504 417.15 84.296 417.15 86.6C417.15 89.0747 416.467 90.9947 415.102 92.36C413.822 93.7253 411.987 94.408 409.598 94.408Z" fill="white"/>
</svg>
